<svg width="75" height="68" viewBox="0 0 75 68" fill="none" xmlns="http://www.w3.org/2000/svg">
<g id="arcticons:shopeepay">
<path id="Vector" d="M16.7233 19.0627H60.9858C63.6968 19.0627 66.4061 21.5192 66.4061 23.9757V52.6433C66.4061 55.0998 63.6968 57.5578 60.9858 57.5578H14.0155C11.3046 57.5578 8.59521 55.0998 8.59521 52.6419V19.0627C8.59521 14.9685 9.49834 13.7403 13.1108 13.7403L51.9546 10.4635C55.1155 10.3006 55.5686 11.2823 55.5686 12.512V19.0641" stroke="black" stroke-linecap="round" stroke-linejoin="round"/>
<path id="Vector_2" d="M29.422 48.2163C31.5079 49.6329 33.5923 50.1061 37.761 50.1061H39.8454C41.6423 50.1061 43.3655 49.4589 44.6361 48.3069C45.9066 47.155 46.6204 45.5926 46.6204 43.9634C46.6204 42.3343 45.9066 40.7719 44.6361 39.6199C43.3655 38.4679 41.6423 37.8208 39.8454 37.8208H35.1563C33.3595 37.8208 31.6363 37.1736 30.3657 36.0216C29.0951 34.8696 28.3813 33.3072 28.3813 31.6781C28.3813 30.0489 29.0951 28.4865 30.3657 27.3346C31.6363 26.1826 33.3595 25.5354 35.1563 25.5354H37.2423C41.9313 25.5354 44.0157 26.0086 45.5798 27.4252" stroke="black" stroke-linecap="round" stroke-linejoin="round"/>
</g>
</svg>
