<svg width="60" height="57" viewBox="0 0 60 57" fill="none" xmlns="http://www.w3.org/2000/svg">
<path id="Vector" d="M36.5625 0H23.4375C21.3621 4.76537e-05 19.3595 0.58142 17.8127 1.63297C16.2658 2.68452 15.2831 4.13247 15.0525 5.7H8.4375C6.19974 5.7 4.05363 6.3756 2.47129 7.57818C0.888949 8.78076 0 10.4118 0 12.1125V50.5875C0 52.2882 0.888949 53.9192 2.47129 55.1218C4.05363 56.3244 6.19974 57 8.4375 57H51.5625C52.6705 57 53.7677 56.8341 54.7914 56.5119C55.8151 56.1896 56.7452 55.7173 57.5287 55.1218C58.3122 54.5264 58.9337 53.8195 59.3577 53.0415C59.7818 52.2635 60 51.4296 60 50.5875V12.1125C60 11.2704 59.7818 10.4365 59.3577 9.65854C58.9337 8.88054 58.3122 8.17363 57.5287 7.57818C56.7452 6.98272 55.8151 6.51038 54.7914 6.18812C53.7677 5.86586 52.6705 5.7 51.5625 5.7H44.9475C44.7169 4.13247 43.7342 2.68452 42.1873 1.63297C40.6405 0.58142 38.6379 4.76537e-05 36.5625 0ZM23.4375 4.275H36.5625C37.3084 4.275 38.0238 4.5002 38.5512 4.90106C39.0787 5.30192 39.375 5.8456 39.375 6.4125C39.375 6.9794 39.0787 7.52308 38.5512 7.92394C38.0238 8.3248 37.3084 8.55 36.5625 8.55H23.4375C22.6916 8.55 21.9762 8.3248 21.4488 7.92394C20.9213 7.52308 20.625 6.9794 20.625 6.4125C20.625 5.8456 20.9213 5.30192 21.4488 4.90106C21.9762 4.5002 22.6916 4.275 23.4375 4.275ZM31.875 23.5125C31.875 22.9456 32.1713 22.4019 32.6988 22.0011C33.2262 21.6002 33.9416 21.375 34.6875 21.375H47.8125C48.5584 21.375 49.2738 21.6002 49.8012 22.0011C50.3287 22.4019 50.625 22.9456 50.625 23.5125C50.625 24.0794 50.3287 24.6231 49.8012 25.0239C49.2738 25.4248 48.5584 25.65 47.8125 25.65H34.6875C33.9416 25.65 33.2262 25.4248 32.6988 25.0239C32.1713 24.6231 31.875 24.0794 31.875 23.5125ZM34.6875 37.05H47.8125C48.5584 37.05 49.2738 37.2752 49.8012 37.6761C50.3287 38.0769 50.625 38.6206 50.625 39.1875C50.625 39.7544 50.3287 40.2981 49.8012 40.6989C49.2738 41.0998 48.5584 41.325 47.8125 41.325H34.6875C33.9416 41.325 33.2262 41.0998 32.6988 40.6989C32.1713 40.2981 31.875 39.7544 31.875 39.1875C31.875 38.6206 32.1713 38.0769 32.6988 37.6761C33.2262 37.2752 33.9416 37.05 34.6875 37.05ZM25.425 22.173L17.925 27.873C17.3977 28.2733 16.6828 28.4981 15.9375 28.4981C15.1922 28.4981 14.4773 28.2733 13.95 27.873L10.2 25.023C9.92367 24.8273 9.70204 24.5913 9.54832 24.3291C9.3946 24.0669 9.31194 23.7839 9.30528 23.4969C9.29862 23.2099 9.36809 22.9248 9.50954 22.6586C9.65099 22.3925 9.86154 22.1507 10.1286 21.9477C10.3957 21.7448 10.7138 21.5848 11.064 21.4772C11.4142 21.3697 11.7893 21.3169 12.167 21.322C12.5446 21.3271 12.917 21.3899 13.262 21.5067C13.607 21.6236 13.9175 21.792 14.175 22.002L15.9375 23.3415L21.45 19.152C21.7075 18.942 22.018 18.7736 22.363 18.6567C22.708 18.5399 23.0804 18.4771 23.458 18.472C23.8357 18.4669 24.2108 18.5197 24.561 18.6272C24.9112 18.7348 25.2293 18.8948 25.4964 19.0977C25.7635 19.3007 25.974 19.5425 26.1155 19.8086C26.2569 20.0748 26.3264 20.3599 26.3197 20.6469C26.3131 20.9339 26.2304 21.2169 26.0767 21.4791C25.923 21.7413 25.7013 21.9773 25.425 22.173ZM25.425 34.827C25.9517 35.2278 26.2475 35.7711 26.2475 36.3375C26.2475 36.9039 25.9517 37.4472 25.425 37.848L17.925 43.548C17.3977 43.9483 16.6828 44.1731 15.9375 44.1731C15.1922 44.1731 14.4773 43.9483 13.95 43.548L10.2 40.698C9.92367 40.5023 9.70204 40.2663 9.54832 40.0041C9.3946 39.7419 9.31194 39.4589 9.30528 39.1719C9.29862 38.8849 9.36809 38.5998 9.50954 38.3336C9.65099 38.0675 9.86154 37.8257 10.1286 37.6227C10.3957 37.4198 10.7138 37.2598 11.064 37.1522C11.4142 37.0447 11.7893 36.9919 12.167 36.997C12.5446 37.0021 12.917 37.0649 13.262 37.1817C13.607 37.2985 13.9175 37.467 14.175 37.677L15.9375 39.0165L21.45 34.827C21.9773 34.4267 22.6922 34.2019 23.4375 34.2019C24.1828 34.2019 24.8977 34.4267 25.425 34.827Z" fill="black"/>
</svg>
